<svg xmlns:xlink="http://www.w3.org/1999/xlink" xmlns="http://www.w3.org/2000/svg" width="949px" height="353px" viewBox="0 0 949 353" style="overflow: hidden; display: block; width: 949px; height: 353px;"><defs><path fill="rgb(224,202,59)" stroke="rgb(224,202,59)" d="M 5,-5 L 0,0 L 5,5 Z" fill-opacity="1" stroke-opacity="1" stroke-width="1" stroke-linecap="butt" stroke-linejoin="miter" stroke-miterlimit="10" id="ygc279_0"/><path fill="rgb(224,202,59)" stroke="rgb(224,202,59)" d="M 5,-5 L 0,0 L 5,5 Z" fill-opacity="1" stroke-opacity="1" stroke-width="1" stroke-linecap="butt" stroke-linejoin="miter" stroke-miterlimit="10" id="ygc279_1"/><path fill="rgb(224,202,59)" stroke="rgb(224,202,59)" d="M 5,-5 L 0,0 L 5,5 Z" fill-opacity="1" stroke-opacity="1" stroke-width="1" stroke-linecap="butt" stroke-linejoin="miter" stroke-miterlimit="10" id="ygc279_2"/><path fill="rgb(224,202,59)" stroke="rgb(224,202,59)" d="M 5,-5 L 0,0 L 5,5 Z" fill-opacity="1" stroke-opacity="1" stroke-width="1" stroke-linecap="butt" stroke-linejoin="miter" stroke-miterlimit="10" id="ygc279_3"/><path fill="rgb(224,202,59)" stroke="rgb(224,202,59)" d="M 5,-5 L 0,0 L 5,5 Z" fill-opacity="1" stroke-opacity="1" stroke-width="1" stroke-linecap="butt" stroke-linejoin="miter" stroke-miterlimit="10" id="ygc279_4"/></defs><g style="pointer-events:visiblePainted" transform="translate(109.375 217.5)" image-rendering="auto" shape-rendering="auto"><g><path fill="none" stroke="rgb(224,202,59)" d="M 92.625,36 L 165,36" stroke-opacity="1" stroke-width="1.4" stroke-linecap="butt" stroke-linejoin="miter" stroke-miterlimit="10"/><use xlink:href="#ygc279_0" transform="matrix(-1.4 0 0 -1.4 171.01 36)" style="pointer-events: none;"/></g><g><path fill="none" stroke="rgb(224,202,59)" d="M 325,36 L 397.375,36" stroke-opacity="1" stroke-width="1.4" stroke-linecap="butt" stroke-linejoin="miter" stroke-miterlimit="10"/><use xlink:href="#ygc279_1" transform="matrix(-1.4 0 0 -1.4 403.385 36)" style="pointer-events: none;"/></g><g><path fill="none" stroke="rgb(224,202,59)" d="M 557.375,36 L 629.75,36" stroke-opacity="1" stroke-width="1.4" stroke-linecap="butt" stroke-linejoin="miter" stroke-miterlimit="10"/><use xlink:href="#ygc279_2" transform="matrix(-1.4 0 0 -1.4 635.76 36)" style="pointer-events: none;"/></g><g><path fill="none" stroke="rgb(224,202,59)" d="M 713.75,-14 L 713.75,-117.5 L 333,-117.5" stroke-opacity="1" stroke-width="1.4" stroke-linecap="butt" stroke-linejoin="miter" stroke-miterlimit="10"/><use xlink:href="#ygc279_3" transform="matrix(1.4 0 0 1.4 326.99 -117.5)" style="pointer-events: none;"/></g><g><path fill="none" stroke="rgb(224,202,59)" d="M 249,-67.5 L 249,-22" stroke-opacity="1" stroke-width="1.4" stroke-linecap="butt" stroke-linejoin="miter" stroke-miterlimit="10"/><use xlink:href="#ygc279_4" transform="matrix(0 -1.4 1.4 0 249 -15.9899)" style="pointer-events: none;"/></g><rect fill="rgb(182,179,173)" stroke="rgb(255,255,255)" fill-opacity="1" stroke-opacity="1" stroke-width="1" stroke-linecap="butt" stroke-linejoin="miter" stroke-miterlimit="10" y="-14" rx="10" width="152" height="100" x="173" ry="10"/><rect fill="rgb(35,194,188)" stroke="rgb(237,243,243)" fill-opacity="1" stroke-opacity="1" stroke-width="1" stroke-linecap="butt" stroke-linejoin="miter" stroke-miterlimit="10" y="-14" rx="10" width="152" height="100" x="-59.375" ry="10"/><rect fill="rgb(143,88,74)" stroke="rgb(255,255,255)" fill-opacity="1" stroke-opacity="1" stroke-width="1" stroke-linecap="butt" stroke-linejoin="miter" stroke-miterlimit="10" y="-14" rx="10" width="152" height="100" x="405.375" ry="10"/><rect fill="rgb(112,192,119)" stroke="rgb(255,255,255)" fill-opacity="1" stroke-opacity="1" stroke-width="1" stroke-linecap="butt" stroke-linejoin="miter" stroke-miterlimit="10" y="-14" rx="10" width="152" height="100" x="637.75" ry="10"/><rect fill="rgb(35,194,188)" stroke="rgb(237,243,243)" fill-opacity="1" stroke-opacity="1" stroke-width="1" stroke-linecap="butt" stroke-linejoin="miter" stroke-miterlimit="10" y="-167.5" rx="10" width="152" height="100" x="173" ry="10"/><g transform="translate(173 -14)"><text font-family="Arial" font-size="16px" font-style="normal" font-weight="normal" text-anchor="middle" fill="rgb(0,0,0)" fill-opacity="1" dy="0.900390625em" transform="translate(76 41.203125)">Dispatcher</text></g><g transform="translate(-59.375 -14)"><text font-family="Arial" font-size="16px" font-style="normal" font-weight="normal" text-anchor="middle" fill="rgb(0,0,0)" fill-opacity="1" dy="0.900390625em" transform="translate(76 41.203125)">Action</text></g><g transform="translate(405.375 -14)"><text font-family="Arial" font-size="16px" font-style="normal" font-weight="normal" text-anchor="middle" fill="rgb(0,0,0)" fill-opacity="1" dy="0.900390625em" transform="translate(76 41.203125)">Store</text></g><g transform="translate(637.75 -14)"><text font-family="Arial" font-size="16px" font-style="normal" font-weight="normal" text-anchor="middle" fill="rgb(0,0,0)" fill-opacity="1" dy="0.900390625em" transform="translate(76 41.203125)">View</text></g><g transform="translate(173 -167.5)"><text font-family="Arial" font-size="16px" font-style="normal" font-weight="normal" text-anchor="middle" fill="rgb(0,0,0)" fill-opacity="1" dy="0.900390625em" transform="translate(76 41.203125)">Action</text></g></g></svg>